<svg xmlns="http://www.w3.org/2000/svg" xmlns:xlink="http://www.w3.org/1999/xlink" width="500" zoomAndPan="magnify" viewBox="0 0 375 374.999991" height="500" preserveAspectRatio="xMidYMid meet" version="1.0"><defs><g/><clipPath id="e3af30bf3f"><path d="M 193 57 L 263 57 L 263 126 L 193 126 Z M 193 57 " clip-rule="nonzero"/></clipPath><clipPath id="0ff00d8feb"><path d="M 185.09375 107.042969 L 244.789062 49.425781 L 270.898438 76.472656 L 211.199219 134.089844 Z M 185.09375 107.042969 " clip-rule="nonzero"/></clipPath><clipPath id="0b85a01b2e"><path d="M 229.824219 63.871094 C 238.058594 55.921875 250.578125 55.535156 257.785156 63.003906 C 264.996094 70.472656 264.164062 82.972656 255.929688 90.917969 L 226.109375 119.699219 C 217.875 127.648438 205.355469 128.035156 198.148438 120.566406 C 190.9375 113.097656 191.769531 100.601562 200.003906 92.652344 Z M 229.824219 63.871094 " clip-rule="nonzero"/></clipPath><clipPath id="8256123f68"><path d="M 118 39 L 207 39 L 207 126 L 118 126 Z M 118 39 " clip-rule="nonzero"/></clipPath><clipPath id="deaa7252ea"><path d="M 109.996094 107.042969 L 188.816406 30.964844 L 214.921875 58.015625 L 136.101562 134.089844 Z M 109.996094 107.042969 " clip-rule="nonzero"/></clipPath><clipPath id="3e4c6baa78"><path d="M 173.839844 45.421875 C 182.074219 37.472656 194.59375 37.085938 201.804688 44.554688 C 209.011719 52.023438 208.179688 64.519531 199.945312 72.46875 L 151.011719 119.699219 C 142.777344 127.648438 130.257812 128.035156 123.046875 120.566406 C 115.839844 113.097656 116.667969 100.601562 124.90625 92.652344 Z M 173.839844 45.421875 " clip-rule="nonzero"/></clipPath><clipPath id="116258069a"><path d="M 39 57 L 110 57 L 110 126 L 39 126 Z M 39 57 " clip-rule="nonzero"/></clipPath><clipPath id="03ddd2b90b"><path d="M 31.734375 107.042969 L 91.433594 49.425781 L 117.539062 76.472656 L 57.84375 134.089844 Z M 31.734375 107.042969 " clip-rule="nonzero"/></clipPath><clipPath id="98f0efd05f"><path d="M 76.464844 63.871094 C 84.699219 55.921875 97.21875 55.535156 104.429688 63.003906 C 111.636719 70.472656 110.804688 82.972656 102.570312 90.917969 L 72.753906 119.699219 C 64.519531 127.648438 52 128.035156 44.789062 120.566406 C 37.578125 113.097656 38.410156 100.601562 46.644531 92.652344 Z M 76.464844 63.871094 " clip-rule="nonzero"/></clipPath><clipPath id="0b90765c1c"><path d="M 20 133 L 112 133 L 112 222 L 20 222 Z M 20 133 " clip-rule="nonzero"/></clipPath><clipPath id="133d9f68e8"><path d="M 12.617188 202.957031 L 93.550781 124.839844 L 119.660156 151.890625 L 38.726562 230.007812 Z M 12.617188 202.957031 " clip-rule="nonzero"/></clipPath><clipPath id="ce4e9417ea"><path d="M 78.578125 139.296875 C 86.8125 131.347656 99.332031 130.960938 106.539062 138.429688 C 113.75 145.898438 112.917969 158.394531 104.683594 166.34375 L 53.632812 215.617188 C 45.398438 223.5625 32.878906 223.953125 25.671875 216.480469 C 18.460938 209.011719 19.292969 196.515625 27.527344 188.566406 Z M 78.578125 139.296875 " clip-rule="nonzero"/></clipPath><clipPath id="5058b508df"><path d="M 39 208 L 110 208 L 110 277 L 39 277 Z M 39 208 " clip-rule="nonzero"/></clipPath><clipPath id="c2b2e3e14f"><path d="M 31.734375 258.019531 L 91.433594 200.402344 L 117.539062 227.449219 L 57.84375 285.070312 Z M 31.734375 258.019531 " clip-rule="nonzero"/></clipPath><clipPath id="73f25c6802"><path d="M 76.464844 214.847656 C 84.699219 206.902344 97.21875 206.511719 104.429688 213.984375 C 111.636719 221.453125 110.804688 233.949219 102.570312 241.898438 L 72.753906 270.679688 C 64.519531 278.625 52 279.015625 44.789062 271.546875 C 37.578125 264.074219 38.410156 251.578125 46.644531 243.628906 Z M 76.464844 214.847656 " clip-rule="nonzero"/></clipPath><clipPath id="a3e0a8dc99"><path d="M 75 246 L 145 246 L 145 315 L 75 315 Z M 75 246 " clip-rule="nonzero"/></clipPath><clipPath id="d9929ac72a"><path d="M 67.121094 295.351562 L 126.289062 238.242188 L 152.394531 265.289062 L 93.226562 322.398438 Z M 67.121094 295.351562 " clip-rule="nonzero"/></clipPath><clipPath id="3d09c86876"><path d="M 111.324219 252.6875 C 119.558594 244.738281 132.078125 244.351562 139.285156 251.820312 C 146.496094 259.289062 145.664062 271.789062 137.429688 279.734375 L 108.136719 308.007812 C 99.902344 315.957031 87.382812 316.34375 80.175781 308.875 C 72.964844 301.40625 73.796875 288.90625 82.03125 280.960938 Z M 111.324219 252.6875 " clip-rule="nonzero"/></clipPath><clipPath id="12920bdeb3"><path d="M 133 246 L 223 246 L 223 336 L 133 336 Z M 133 246 " clip-rule="nonzero"/></clipPath><clipPath id="4148a91cb4"><path d="M 124.964844 317.382812 L 204.085938 238.261719 L 230.667969 264.84375 L 151.546875 343.964844 Z M 124.964844 317.382812 " clip-rule="nonzero"/></clipPath><clipPath id="eb130f9a0d"><path d="M 189.398438 252.949219 C 197.492188 244.859375 210.003906 244.25 217.34375 251.589844 C 224.683594 258.929688 224.074219 271.441406 215.980469 279.53125 L 166.199219 329.3125 C 158.105469 337.40625 145.597656 338.015625 138.253906 330.675781 C 130.914062 323.335938 131.523438 310.824219 139.617188 302.730469 Z M 189.398438 252.949219 " clip-rule="nonzero"/></clipPath><clipPath id="1009693aeb"><path d="M 227 246 L 297 246 L 297 315 L 227 315 Z M 227 246 " clip-rule="nonzero"/></clipPath><clipPath id="faceca3fd0"><path d="M 219.417969 295.351562 L 278.585938 238.242188 L 304.695312 265.289062 L 245.523438 322.398438 Z M 219.417969 295.351562 " clip-rule="nonzero"/></clipPath><clipPath id="a15a60de79"><path d="M 263.621094 252.6875 C 271.855469 244.738281 284.375 244.351562 291.582031 251.820312 C 298.792969 259.289062 297.960938 271.789062 289.726562 279.734375 L 260.433594 308.007812 C 252.199219 315.957031 239.679688 316.34375 232.472656 308.875 C 225.261719 301.40625 226.09375 288.90625 234.328125 280.960938 Z M 263.621094 252.6875 " clip-rule="nonzero"/></clipPath><clipPath id="b0f4dc4279"><path d="M 227 107 L 297 107 L 297 177 L 227 177 Z M 227 107 " clip-rule="nonzero"/></clipPath><clipPath id="2322186fc9"><path d="M 218.890625 157.304688 L 278.589844 99.6875 L 304.695312 126.734375 L 245 184.351562 Z M 218.890625 157.304688 " clip-rule="nonzero"/></clipPath><clipPath id="79d08fc802"><path d="M 263.621094 114.132812 C 271.855469 106.183594 284.375 105.796875 291.585938 113.265625 C 298.792969 120.734375 297.960938 133.234375 289.726562 141.179688 L 259.910156 169.960938 C 251.675781 177.910156 239.15625 178.296875 231.945312 170.828125 C 224.738281 163.359375 225.566406 150.863281 233.800781 142.914062 Z M 263.621094 114.132812 " clip-rule="nonzero"/></clipPath></defs><rect x="-37.5" width="450" fill="#ffffff" y="-37.499999" height="449.999989" fill-opacity="1"/><rect x="-37.5" width="450" fill="#ffffff" y="-37.499999" height="449.999989" fill-opacity="1"/><g fill="#084594" fill-opacity="1"><g transform="translate(102.783594, 222.667135)"><g><path d="M 14.757812 -25.121094 C 14.757812 -34.695312 21.667969 -39.449219 28.578125 -39.449219 C 34.335938 -39.449219 40.167969 -36.136719 41.824219 -29.441406 L 54.277344 -29.441406 C 52.691406 -42.398438 41.535156 -51.179688 28.578125 -51.179688 C 14.179688 -51.179688 2.519531 -39.953125 2.519531 -25.121094 C 2.519531 -10.292969 14.179688 0.71875 28.578125 0.71875 C 41.679688 0.71875 52.476562 -7.992188 54.347656 -21.164062 L 41.894531 -21.164062 C 40.3125 -14.324219 34.480469 -10.871094 28.578125 -10.871094 C 21.667969 -10.871094 14.757812 -15.621094 14.757812 -25.121094 Z M 14.757812 -25.121094 "/></g></g></g><g fill="#084594" fill-opacity="1"><g transform="translate(159.429121, 222.667135)"><g><path d="M 19.867188 -39.589844 C 7.199219 -39.589844 1.007812 -30.664062 1.007812 -20.011719 C 1.007812 -9.285156 7.414062 0.503906 19.722656 0.503906 C 23.46875 0.503906 27.28125 -0.574219 29.945312 -3.886719 L 29.945312 0 L 41.246094 0 L 41.246094 -38.945312 L 29.945312 -38.945312 L 29.945312 -34.914062 C 27.425781 -38.152344 23.683594 -39.589844 19.867188 -39.589844 Z M 21.089844 -10.367188 C 15.332031 -10.367188 12.382812 -15.042969 12.382812 -19.722656 C 12.382812 -24.476562 15.261719 -29.152344 21.089844 -29.152344 C 25.988281 -29.152344 29.945312 -24.90625 29.945312 -19.722656 C 29.945312 -14.539062 25.988281 -10.367188 21.089844 -10.367188 Z M 21.089844 -10.367188 "/></g></g></g><g fill="#084594" fill-opacity="1"><g transform="translate(205.710032, 222.667135)"><g><path d="M 23.46875 0.648438 C 36.136719 0.648438 42.328125 -8.277344 42.328125 -18.933594 C 42.328125 -29.65625 35.921875 -39.449219 23.609375 -39.449219 C 19.867188 -39.449219 16.050781 -38.367188 13.390625 -35.058594 L 13.390625 -38.945312 L 2.160156 -38.945312 L 2.160156 11.375 L 13.390625 11.375 L 13.390625 -3.597656 C 15.980469 -0.648438 19.652344 0.648438 23.46875 0.648438 Z M 22.242188 -28.578125 C 28.003906 -28.578125 30.953125 -23.898438 30.953125 -19.21875 C 30.953125 -14.539062 28.074219 -9.789062 22.242188 -9.789062 C 17.347656 -9.789062 13.390625 -14.035156 13.390625 -19.21875 C 13.390625 -24.402344 17.347656 -28.578125 22.242188 -28.578125 Z M 22.242188 -28.578125 "/></g></g></g><g fill="#084594" fill-opacity="1"><g transform="translate(252.494782, 222.667135)"><g><path d="M 25.914062 0.0703125 L 25.554688 -9.285156 C 24.546875 -9.070312 23.394531 -8.925781 22.316406 -8.925781 C 19.578125 -8.925781 17.058594 -10.007812 17.058594 -13.460938 L 17.058594 -28.792969 L 25.195312 -28.792969 L 25.195312 -38.511719 L 17.058594 -38.511719 L 17.058594 -46.933594 L 5.757812 -45.925781 L 5.757812 -38.511719 L 0.648438 -38.511719 L 0.648438 -28.792969 L 5.757812 -28.792969 L 5.757812 -13.460938 C 5.757812 -3.382812 10.941406 0.648438 19.507812 0.648438 C 21.453125 0.648438 23.609375 0.433594 25.914062 0.0703125 Z M 25.914062 0.0703125 "/></g></g></g><g fill="#d82148" fill-opacity="1"><g transform="translate(286.902202, 222.667135)"><g><path d="M 9.503906 -39.375 C 15.765625 -39.375 18.789062 -41.96875 18.789062 -46.71875 C 18.789062 -51.398438 15.621094 -54.277344 9.503906 -54.277344 C 3.3125 -54.277344 0.144531 -51.398438 0.144531 -46.71875 C 0.144531 -41.96875 3.238281 -39.375 9.503906 -39.375 Z M 0.792969 0 L 0.792969 -38.152344 L 18.210938 -38.152344 L 18.210938 0 Z M 0.792969 0 "/></g></g></g><g fill="#d82148" fill-opacity="1"><g transform="translate(308.351221, 222.667135)"><g><path d="M 17.347656 -38.945312 L 0.71875 -38.945312 L 0.71875 0 L 17.996094 0 L 17.996094 -21.019531 C 17.996094 -23.828125 20.226562 -25.195312 22.316406 -25.195312 C 24.546875 -25.195312 26.273438 -23.753906 26.273438 -21.019531 L 26.273438 0 L 43.550781 0 L 43.550781 -21.089844 C 43.550781 -31.671875 39.375 -39.589844 27.570312 -39.589844 C 23.828125 -39.589844 20.011719 -38.367188 17.347656 -34.984375 Z M 17.347656 -38.945312 "/></g></g></g><g clip-path="url(#e3af30bf3f)"><g clip-path="url(#0ff00d8feb)"><g clip-path="url(#0b85a01b2e)"><path fill="#019267" d="M 185.09375 107.042969 L 244.683594 49.527344 L 270.792969 76.574219 L 211.199219 134.089844 Z M 185.09375 107.042969 " fill-opacity="1" fill-rule="nonzero"/></g></g></g><g clip-path="url(#8256123f68)"><g clip-path="url(#deaa7252ea)"><g clip-path="url(#3e4c6baa78)"><path fill="#019267" d="M 109.996094 107.042969 L 188.710938 31.066406 L 214.816406 58.117188 L 136.101562 134.089844 Z M 109.996094 107.042969 " fill-opacity="1" fill-rule="nonzero"/></g></g></g><g clip-path="url(#116258069a)"><g clip-path="url(#03ddd2b90b)"><g clip-path="url(#98f0efd05f)"><path fill="#019267" d="M 31.734375 107.042969 L 91.328125 49.527344 L 117.433594 76.574219 L 57.84375 134.089844 Z M 31.734375 107.042969 " fill-opacity="1" fill-rule="nonzero"/></g></g></g><g clip-path="url(#0b90765c1c)"><g clip-path="url(#133d9f68e8)"><g clip-path="url(#ce4e9417ea)"><path fill="#019267" d="M 12.617188 202.957031 L 93.445312 124.945312 L 119.554688 151.992188 L 38.726562 230.007812 Z M 12.617188 202.957031 " fill-opacity="1" fill-rule="nonzero"/></g></g></g><g clip-path="url(#5058b508df)"><g clip-path="url(#c2b2e3e14f)"><g clip-path="url(#73f25c6802)"><path fill="#019267" d="M 31.734375 258.019531 L 91.328125 200.503906 L 117.433594 227.554688 L 57.84375 285.070312 Z M 31.734375 258.019531 " fill-opacity="1" fill-rule="nonzero"/></g></g></g><g clip-path="url(#a3e0a8dc99)"><g clip-path="url(#d9929ac72a)"><g clip-path="url(#3d09c86876)"><path fill="#019267" d="M 67.121094 295.351562 L 126.183594 238.34375 L 152.289062 265.390625 L 93.226562 322.398438 Z M 67.121094 295.351562 " fill-opacity="1" fill-rule="nonzero"/></g></g></g><g clip-path="url(#12920bdeb3)"><g clip-path="url(#4148a91cb4)"><g clip-path="url(#eb130f9a0d)"><path fill="#019267" d="M 124.964844 317.382812 L 204.085938 238.261719 L 230.667969 264.84375 L 151.546875 343.964844 Z M 124.964844 317.382812 " fill-opacity="1" fill-rule="nonzero"/></g></g></g><g clip-path="url(#1009693aeb)"><g clip-path="url(#faceca3fd0)"><g clip-path="url(#a15a60de79)"><path fill="#019267" d="M 219.417969 295.351562 L 278.480469 238.34375 L 304.589844 265.390625 L 245.523438 322.398438 Z M 219.417969 295.351562 " fill-opacity="1" fill-rule="nonzero"/></g></g></g><g clip-path="url(#b0f4dc4279)"><g clip-path="url(#2322186fc9)"><g clip-path="url(#79d08fc802)"><path fill="#d82148" d="M 218.890625 157.304688 L 278.484375 99.789062 L 304.589844 126.835938 L 245 184.351562 Z M 218.890625 157.304688 " fill-opacity="1" fill-rule="nonzero"/></g></g></g></svg>